<svg width="28" height="27" viewBox="0 0 28 27" fill="none" xmlns="http://www.w3.org/2000/svg">
<g clip-path="url(#clip0_41_127)">
<path d="M27.4169 12.4987C27.4169 13.2018 27.4169 13.9043 27.4169 14.6074C27.3326 14.6489 27.3656 14.7297 27.3593 14.7937C27.1322 16.9875 26.4494 19.0265 25.219 20.8603C22.9788 24.1987 19.8745 26.2082 15.8948 26.8495C15.589 26.8987 15.2719 26.8797 14.9758 26.995C14.2551 26.995 13.5351 26.995 12.8144 26.995C12.5901 26.8825 12.3419 26.9114 12.105 26.8769C9.16382 26.4508 6.61429 25.2175 4.49296 23.1363C2.34491 21.0297 1.03851 18.4802 0.575147 15.5018C0.525928 15.1861 0.540693 14.8598 0.42749 14.5546C0.42749 13.8339 0.42749 13.1139 0.42749 12.3932C0.538584 12.1689 0.511163 11.9207 0.544913 11.6831C0.931632 8.9873 2.00601 6.60371 3.81937 4.57098C5.98991 2.13746 8.69273 0.660897 11.9208 0.153241C12.2365 0.103319 12.5627 0.118086 12.8679 0.00488281C13.5534 0.00488281 14.2383 0.00488281 14.9238 0.00488281C14.9534 0.0660547 15.0124 0.0505875 15.0616 0.0548062C17.1148 0.225666 19.0385 0.819803 20.7928 1.89699C24.4019 4.11183 26.5718 7.31105 27.2679 11.4989C27.3227 11.8314 27.3066 12.1746 27.4169 12.4987ZM11.6522 19.8196C11.8701 19.8196 12.003 19.6917 12.1345 19.5595C15.2838 16.413 18.4331 13.2672 21.5824 10.12C21.915 9.78816 21.9143 9.55754 21.5817 9.22355C21.0059 8.64488 20.4272 8.06832 19.8499 7.49105C19.4477 7.08887 19.234 7.08746 18.8381 7.48332C16.5164 9.80574 14.194 12.1275 11.8772 14.4548C11.7267 14.606 11.6494 14.6228 11.4912 14.4611C10.6369 13.5893 9.77132 12.7293 8.90577 11.8687C8.6203 11.5846 8.36718 11.5839 8.08522 11.8638C7.45593 12.4882 6.82804 13.1154 6.20437 13.7454C5.94351 14.009 5.94069 14.2643 6.20296 14.5279C7.89819 16.2351 9.59695 17.9381 11.295 19.6432C11.3976 19.7472 11.5186 19.8105 11.6522 19.8196Z" fill="#4BAD4F"/>
<path d="M11.6522 19.8198C11.5186 19.8106 11.397 19.7474 11.2943 19.644C9.59698 17.9389 7.89752 16.2359 6.20229 14.5288C5.94072 14.2651 5.94283 14.0092 6.20369 13.7462C6.82737 13.1162 7.45526 12.489 8.08455 11.8646C8.36651 11.5848 8.61963 11.5855 8.9051 11.8695C9.77065 12.7302 10.6362 13.5908 11.4905 14.462C11.6487 14.623 11.726 14.6068 11.8765 14.4556C14.1926 12.1276 16.5157 9.80657 18.8374 7.48415C19.2333 7.08759 19.4471 7.0897 19.8492 7.49189C20.4265 8.06915 21.0052 8.64572 21.581 9.22439C21.9136 9.55837 21.9143 9.78829 21.5817 10.1209C18.4331 13.2674 15.2831 16.4138 12.1339 19.5603C12.0031 19.6918 11.8702 19.8198 11.6522 19.8198Z" fill="#FDFEFD"/>
</g>
<defs>
<clipPath id="clip0_41_127">
<rect width="27.8438" height="27" fill="white"/>
</clipPath>
</defs>
</svg>
