<svg width="16" height="27" viewBox="0 0 16 27" fill="none" xmlns="http://www.w3.org/2000/svg">
<path d="M6.23716 6.29011C1.90397 10.1715 -0.549284 13.9844 0.104028 19.3841C1.21066 28.6879 14.3569 28.7564 15.7968 21.7129C17.3035 14.3839 9.86371 16.0278 10.8637 8.27647C11.6503 2.27175 7.34379 0 7.34379 0C7.34379 0 8.91707 3.88138 6.23716 6.29011Z" fill="#FC0001"/>
<path d="M8.95692 2.84253C9.66356 9.22397 0.703857 9.56644 0.597194 17.4091C0.503864 24.27 5.4237 26.0281 9.5569 25.2518C13.6768 24.4755 17.1033 21.9754 12.3701 15.6853C9.6369 12.0437 10.1569 9.05273 10.1569 9.05273C10.1569 9.05273 6.66366 12.2377 8.47693 14.7378C10.2902 17.2379 4.46373 17.295 6.27701 12.8999C8.09028 8.50477 9.49023 9.08698 9.90355 6.51842C10.2235 4.45216 8.95692 2.84253 8.95692 2.84253Z" fill="#FB6D01"/>
<path d="M9.7569 26.1878C2.71713 25.5942 0.263882 22.0325 0.397211 18.3566C0.597204 13.1053 6.53034 9.65771 6.53034 9.65771C6.53034 9.65771 3.10379 12.9341 5.02372 16.1191C6.93033 19.3041 10.8635 20.2516 10.8635 20.2516C10.8635 20.2516 9.55691 18.4365 9.55691 15.9478C9.55691 14.909 9.7569 13.7902 9.7569 13.7902C9.7569 13.7902 10.1969 15.8337 12.2768 17.3177C15.2901 19.4753 15.2901 21.7927 14.3834 23.6078C13.4768 25.423 9.7569 26.1878 9.7569 26.1878Z" fill="#EFA204"/>
<path d="M5.33037 13.1853C5.2637 13.288 5.19704 13.3794 5.13038 13.4821C1.82382 18.5051 2.2638 22.181 4.93038 24.213C7.65029 26.2792 11.1302 28.3797 12.9435 25.0121C13.9168 23.2084 11.8635 22.7403 8.3436 20.2403C4.82372 17.7516 5.33037 13.1853 5.33037 13.1853Z" fill="#FACF67"/>
<path d="M14.0901 12.2949C10.8636 15.5142 11.9035 17.1809 12.9835 19.2472C14.0634 21.3134 13.8501 22.2952 13.8501 22.2952C13.8501 22.2952 15.6767 20.5371 14.3568 17.9572C12.2102 13.7904 14.0901 12.2949 14.0901 12.2949Z" fill="#FCE8B3"/>
<path d="M2.54381 14.7378C1.01053 18.6991 6.17036 21.3361 8.7836 22.1467C11.3969 22.9458 11.0635 25.1947 11.0635 25.1947C11.0635 25.1947 12.0635 23.4138 11.3969 21.9183C10.7302 20.4229 10.3969 20.5941 10.3969 20.5941C10.3969 20.5941 12.8101 20.7425 13.4501 23.0942C13.9568 24.9664 12.6101 26.2221 11.2635 26.6787C9.9169 27.1354 6.30369 27.6605 2.9438 23.859C-0.402759 20.0804 2.54381 14.7378 2.54381 14.7378Z" fill="#FCE8B3"/>
<path d="M3.15711 6.23291C5.19704 8.47041 3.99708 11.4842 3.33043 12.1463C2.66379 12.8084 3.13044 10.2741 3.53043 9.15536C3.91708 8.03661 3.15711 6.23291 3.15711 6.23291Z" fill="#FCE8B3"/>
</svg>
