<svg width="94" height="58" viewBox="0 0 94 58" fill="none" xmlns="http://www.w3.org/2000/svg">
<path fill-rule="evenodd" clip-rule="evenodd" d="M47.5124 9.05665C46.6834 8.38056 44.4998 8.16077 43.1381 9.05665L47.6772 3.40427H49.285L47.5028 9.05665H47.5124Z" fill="white"/>
<path fill-rule="evenodd" clip-rule="evenodd" d="M47.6868 3.40433L50.3864 0L49.2946 3.40433H47.6868Z" fill="white"/>
<path fill-rule="evenodd" clip-rule="evenodd" d="M53.0735 3.40433L50.3739 0L51.4633 3.40433H53.0735Z" fill="white"/>
<path fill-rule="evenodd" clip-rule="evenodd" d="M51.463 3.40433L50.3737 0L49.2938 3.40433H51.463Z" fill="white"/>
<path fill-rule="evenodd" clip-rule="evenodd" d="M53.2548 9.06382L51.4631 3.40427H49.2938L47.5093 9.07815C49.4085 8.03655 51.346 8.06521 53.2548 9.07815V9.06382Z" fill="white"/>
<path fill-rule="evenodd" clip-rule="evenodd" d="M53.2481 9.05665C54.2252 8.23961 56.3538 8.10105 57.6032 9.05665L53.0641 3.40427H51.4539L53.2385 9.05665H53.2481Z" fill="#FDFAD7"/>
<path fill-rule="evenodd" clip-rule="evenodd" d="M47.5141 31.8411H43.0944L43.1374 9.05721C44.5979 8.02357 46.0552 8.02357 47.5093 9.05721V31.8411H47.5141Z" fill="white"/>
<path fill-rule="evenodd" clip-rule="evenodd" d="M53.2314 31.9009L47.5122 31.8411V9.05721C49.4138 8.02357 51.3202 8.02357 53.2314 9.05721V31.9009Z" fill="white"/>
<path fill-rule="evenodd" clip-rule="evenodd" d="M57.6072 31.8411H53.1875L53.2305 9.05721C54.691 8.02357 56.1483 8.02357 57.6024 9.05721V31.8411H57.6072Z" fill="white"/>
<path fill-rule="evenodd" clip-rule="evenodd" d="M43.0993 29.8939L39.5994 33.7498C39.1742 33.7594 38.9807 33.5205 39.0189 33.0331C39.0189 26.6831 38.5148 24.4781 43.1399 19.2963L43.0993 29.9011V29.8939Z" fill="white"/>
<path fill-rule="evenodd" clip-rule="evenodd" d="M43.1421 19.289L42.0288 20.603L41.9882 31.1194L43.1015 29.8508L43.1421 19.289Z" fill="white"/>
<path fill-rule="evenodd" clip-rule="evenodd" d="M50.3162 13.7055C50.7348 13.7055 51.144 13.8296 51.4921 14.0622C51.8402 14.2948 52.1115 14.6253 52.2717 15.0121C52.4319 15.3989 52.4738 15.8245 52.3921 16.2351C52.3105 16.6457 52.1089 17.0228 51.8129 17.3188C51.5168 17.6148 51.1397 17.8164 50.7291 17.8981C50.3185 17.9798 49.8929 17.9379 49.5062 17.7777C49.1194 17.6175 48.7888 17.3462 48.5562 16.9981C48.3236 16.65 48.1995 16.2408 48.1995 15.8221C48.1995 15.2608 48.4225 14.7224 48.8195 14.3254C49.2164 13.9285 49.7548 13.7055 50.3162 13.7055ZM50.3162 11.6557C51.1402 11.6557 51.9457 11.9001 52.6309 12.3579C53.3161 12.8157 53.8501 13.4664 54.1654 14.2277C54.4808 14.989 54.5633 15.8267 54.4025 16.635C54.2418 17.4432 53.8449 18.1855 53.2623 18.7682C52.6796 19.3509 51.9372 19.7477 51.129 19.9085C50.3208 20.0693 49.4831 19.9867 48.7217 19.6714C47.9604 19.3561 47.3097 18.822 46.8519 18.1369C46.3941 17.4517 46.1497 16.6462 46.1497 15.8221C46.1494 15.2749 46.257 14.733 46.4662 14.2273C46.6755 13.7217 46.9824 13.2623 47.3694 12.8753C47.7563 12.4884 48.2157 12.1815 48.7214 11.9722C49.227 11.7629 49.7689 11.6554 50.3162 11.6557Z" fill="white"/>
<path fill-rule="evenodd" clip-rule="evenodd" d="M43.124 31.8712H57.618V33.3811C57.6162 33.9195 57.4013 34.4352 57.0204 34.8157C56.6394 35.1962 56.1234 35.4105 55.585 35.4117H45.1522C44.6138 35.4105 44.0978 35.1962 43.7169 34.8157C43.336 34.4352 43.1211 33.9195 43.1192 33.3811V31.8712H43.124Z" fill="white"/>
<path fill-rule="evenodd" clip-rule="evenodd" d="M50.3162 13.4765C50.7807 13.4765 51.2349 13.6143 51.6211 13.8724C52.0074 14.1306 52.3084 14.4975 52.486 14.9267C52.6637 15.356 52.7101 15.8283 52.6193 16.2839C52.5285 16.7395 52.3046 17.1579 51.9759 17.4863C51.6472 17.8146 51.2285 18.0381 50.7728 18.1284C50.3171 18.2188 49.8449 18.1719 49.4158 17.9938C48.9868 17.8157 48.6201 17.5143 48.3624 17.1278C48.1046 16.7413 47.9673 16.287 47.9678 15.8225C47.9684 15.2001 48.2161 14.6033 48.6564 14.1635C49.0968 13.7236 49.6937 13.4765 50.3162 13.4765ZM50.3162 13.873C50.7023 13.873 51.0798 13.9876 51.4008 14.2022C51.7218 14.4167 51.972 14.7217 52.1196 15.0785C52.2673 15.4353 52.3058 15.8278 52.2303 16.2065C52.1548 16.5852 51.9687 16.933 51.6955 17.2058C51.4223 17.4787 51.0743 17.6644 50.6955 17.7395C50.3167 17.8145 49.9242 17.7755 49.5676 17.6274C49.211 17.4793 48.9063 17.2288 48.6921 16.9075C48.4779 16.5862 48.3639 16.2086 48.3644 15.8225C48.3644 15.5663 48.4149 15.3126 48.513 15.0759C48.6111 14.8392 48.7549 14.6242 48.9362 14.4432C49.1174 14.2621 49.3326 14.1186 49.5694 14.0207C49.8062 13.9229 50.06 13.8727 50.3162 13.873Z" fill="white"/>
<path fill-rule="evenodd" clip-rule="evenodd" d="M50.317 13.8729C50.7031 13.8729 51.0806 13.9875 51.4016 14.202C51.7226 14.4166 51.9728 14.7216 52.1204 15.0784C52.2681 15.4352 52.3066 15.8277 52.2311 16.2064C52.1556 16.5851 51.9695 16.9329 51.6963 17.2057C51.4231 17.4786 51.0751 17.6643 50.6963 17.7393C50.3175 17.8144 49.925 17.7754 49.5684 17.6273C49.2118 17.4792 48.9071 17.2287 48.6929 16.9074C48.4787 16.5861 48.3647 16.2085 48.3652 15.8224C48.3652 15.5661 48.4157 15.3125 48.5138 15.0758C48.6119 14.8391 48.7557 14.6241 48.937 14.4431C49.1182 14.262 49.3334 14.1185 49.5702 14.0206C49.807 13.9228 50.0608 13.8726 50.317 13.8729Z" fill="white"/>
<path fill-rule="evenodd" clip-rule="evenodd" d="M50.0056 14.7193C51.2121 14.091 52.4328 15.823 51.2312 16.8407C51.4271 15.815 51.0185 15.1079 50.0056 14.7193Z" fill="white"/>
<path fill-rule="evenodd" clip-rule="evenodd" d="M57.6139 29.9512L61.1162 33.8071C61.5382 33.8071 61.7317 33.5682 61.6967 33.0904C61.6967 26.7428 62.2008 24.5353 57.5733 19.356L57.6139 29.9608V29.9512Z" fill="white"/>
<path fill-rule="evenodd" clip-rule="evenodd" d="M57.5864 19.3989L58.6996 20.7129L58.7403 31.2293L57.627 29.9607L57.5864 19.3989Z" fill="white"/>
<path fill-rule="evenodd" clip-rule="evenodd" d="M29.043 22.8105V22.8488C29.1934 23.3647 29.4715 23.8343 29.8514 24.2143C30.2314 24.5943 30.7011 24.8723 31.217 25.0227H31.2552C31.2991 25.0377 31.3371 25.0661 31.3641 25.1038C31.391 25.1415 31.4055 25.1866 31.4055 25.233C31.4055 25.2793 31.391 25.3245 31.3641 25.3622C31.3371 25.3999 31.2991 25.4282 31.2552 25.4432H31.217C30.7011 25.5936 30.2314 25.8717 29.8514 26.2517C29.4715 26.6317 29.1934 27.1013 29.043 27.6172V27.6554C29.0293 27.7005 29.0014 27.7399 28.9636 27.768C28.9257 27.796 28.8799 27.8111 28.8328 27.8111C28.7857 27.8111 28.7398 27.796 28.702 27.768C28.6641 27.7399 28.6363 27.7005 28.6225 27.6554V27.6172C28.4721 27.1013 28.1941 26.6317 27.8141 26.2517C27.4341 25.8717 26.9644 25.5936 26.4485 25.4432H26.4103C26.3653 25.4295 26.3258 25.4016 26.2978 25.3638C26.2698 25.3259 26.2546 25.2801 26.2546 25.233C26.2546 25.1859 26.2698 25.14 26.2978 25.1022C26.3258 25.0643 26.3653 25.0365 26.4103 25.0227H26.4485C26.9644 24.8723 27.4341 24.5943 27.8141 24.2143C28.1941 23.8343 28.4721 23.3647 28.6225 22.8488V22.8105C28.6375 22.7667 28.6658 22.7286 28.7035 22.7017C28.7412 22.6747 28.7864 22.6602 28.8328 22.6602C28.8791 22.6602 28.9243 22.6747 28.962 22.7017C28.9997 22.7286 29.028 22.7667 29.043 22.8105Z" fill="white"/>
<path fill-rule="evenodd" clip-rule="evenodd" d="M65.7783 18.4984V18.5247C65.876 18.8656 66.0589 19.176 66.3096 19.4268C66.5604 19.6775 66.8708 19.8604 67.2117 19.9581H67.2356C67.2652 19.9662 67.2913 19.984 67.3095 20.0087C67.3277 20.0334 67.337 20.0636 67.3359 20.0943C67.3366 20.1249 67.3271 20.1548 67.309 20.1795C67.2908 20.2041 67.265 20.222 67.2356 20.2304H67.2117C66.871 20.3286 66.5608 20.5116 66.3101 20.7623C66.0594 21.013 65.8764 21.3232 65.7783 21.6639V21.6901C65.7695 21.7197 65.7514 21.7457 65.7266 21.7641C65.7019 21.7826 65.6718 21.7925 65.641 21.7925C65.6101 21.7925 65.58 21.7826 65.5553 21.7641C65.5305 21.7457 65.5124 21.7197 65.5036 21.6901V21.6639C65.4055 21.3232 65.2225 21.013 64.9718 20.7623C64.7211 20.5116 64.4109 20.3286 64.0702 20.2304H64.0463C64.0169 20.222 63.9911 20.2041 63.9729 20.1795C63.9548 20.1548 63.9453 20.1249 63.946 20.0943C63.9449 20.0636 63.9542 20.0334 63.9724 20.0087C63.9906 19.984 64.0167 19.9662 64.0463 19.9581H64.0702C64.4111 19.8604 64.7215 19.6775 64.9723 19.4268C65.223 19.176 65.4059 18.8656 65.5036 18.5247V18.4984C65.5124 18.4688 65.5305 18.4429 65.5553 18.4244C65.58 18.406 65.6101 18.396 65.641 18.396C65.6718 18.396 65.7019 18.406 65.7266 18.4244C65.7514 18.4429 65.7695 18.4688 65.7783 18.4984Z" fill="white"/>
<path fill-rule="evenodd" clip-rule="evenodd" d="M37.3425 12.4226V12.4417C37.4229 12.7162 37.5713 12.966 37.7738 13.1681C37.9763 13.3702 38.2264 13.518 38.5011 13.598H38.5202C38.5436 13.6057 38.5639 13.6206 38.5782 13.6405C38.5926 13.6605 38.6004 13.6845 38.6004 13.709C38.6004 13.7336 38.5926 13.7576 38.5782 13.7775C38.5639 13.7975 38.5436 13.8124 38.5202 13.8201H38.5011C38.2264 13.9001 37.9763 14.0479 37.7738 14.25C37.5713 14.452 37.4229 14.7019 37.3425 14.9764V14.9955C37.3356 15.0199 37.3209 15.0413 37.3006 15.0564C37.2802 15.0716 37.2555 15.0796 37.2302 15.0791C37.2052 15.0794 37.1808 15.0714 37.1609 15.0562C37.1409 15.0411 37.1267 15.0197 37.1203 14.9955V14.9764C37.0408 14.7017 36.8931 14.4517 36.6909 14.2495C36.4887 14.0473 36.2387 13.8996 35.964 13.8201H35.9449C35.9202 13.8138 35.8984 13.7995 35.8827 13.7794C35.8671 13.7592 35.8587 13.7345 35.8587 13.709C35.8587 13.6836 35.8671 13.6588 35.8827 13.6387C35.8984 13.6186 35.9202 13.6043 35.9449 13.598H35.964C36.2387 13.5185 36.4887 13.3708 36.6909 13.1686C36.8931 12.9664 37.0408 12.7163 37.1203 12.4417V12.4226C37.1267 12.3984 37.1409 12.377 37.1609 12.3619C37.1808 12.3467 37.2052 12.3386 37.2302 12.3389C37.2555 12.3385 37.2802 12.3465 37.3006 12.3616C37.3209 12.3768 37.3356 12.3982 37.3425 12.4226Z" fill="white"/>
<path fill-rule="evenodd" clip-rule="evenodd" d="M51.3201 22.6619L50.9832 33.121C50.8877 36.1072 49.7887 36.2458 49.6932 33.121L49.3587 22.6954C49.2775 20.1296 51.3965 20.3064 51.3201 22.6524V22.6619Z" fill="white"/>
<path d="M0 39.4733H5.09813V46.9365L11.4314 39.4733H17.4756L10.5116 47.3833L17.7121 57.8686H11.5891L6.96395 51.036L5.09813 53.1121V57.8686H0V39.4733Z" fill="white"/>
<path d="M21.8121 39.4733H36.6072V43.8093H26.8577V46.5949H35.6875V50.6156H26.8577V53.5349H36.7386V57.8686H21.8121V39.4733Z" fill="white"/>
<path d="M40.4962 39.4733H46.1987L50.3771 51.1173L54.5555 39.4733H60.1529L52.6897 58H47.9594L40.4962 39.4733Z" fill="white"/>
<path d="M64.6722 57.8686H69.7966V39.4733H64.6722V57.8686Z" fill="white"/>
<path d="M75.7886 39.4733H80.5451L88.1135 49.1965V39.4733H93.1591V57.8686H88.6916L80.8342 47.7774V57.8686H75.7886V39.4733Z" fill="white"/>
<path d="M47.3259 39.5164L50.5367 46.853L53.5229 39.4973L47.3259 39.5164Z" fill="white"/>
<path d="M49.1148 39.5068L50.5697 42.8299L51.9219 39.4973L49.1148 39.5068Z" fill="white"/>
<path fill-rule="evenodd" clip-rule="evenodd" d="M54.556 39.5046L50.3776 51.1175L46.1992 39.5046" fill="white"/>
<path fill-rule="evenodd" clip-rule="evenodd" d="M53.1359 39.5046L50.324 47.319L47.5122 39.5046" fill="white"/>
<path fill-rule="evenodd" clip-rule="evenodd" d="M51.683 39.5046L50.3237 43.2864L48.9619 39.5046" fill="white"/>
<path fill-rule="evenodd" clip-rule="evenodd" d="M47.5124 9.05665C46.6834 8.38056 44.4998 8.16077 43.1381 9.05665L47.6772 3.40427H49.285L47.5028 9.05665H47.5124Z" fill="#E4B472"/>
<path fill-rule="evenodd" clip-rule="evenodd" d="M47.6868 3.40433L50.3864 0L49.2946 3.40433H47.6868Z" fill="#453636"/>
<path fill-rule="evenodd" clip-rule="evenodd" d="M53.0735 3.40433L50.3739 0L51.4633 3.40433H53.0735Z" fill="#9B827C"/>
<path fill-rule="evenodd" clip-rule="evenodd" d="M51.463 3.40433L50.3737 0L49.2938 3.40433H51.463Z" fill="#5A4A4A"/>
<path fill-rule="evenodd" clip-rule="evenodd" d="M53.2548 9.06382L51.4631 3.40427H49.2938L47.5093 9.07815C49.4085 8.03655 51.346 8.06521 53.2548 9.07815V9.06382Z" fill="#F4D592"/>
<path fill-rule="evenodd" clip-rule="evenodd" d="M53.2481 9.05665C54.2252 8.23961 56.3538 8.10105 57.6032 9.05665L53.0641 3.40427H51.4539L53.2385 9.05665H53.2481Z" fill="#FDFAD7"/>
<path fill-rule="evenodd" clip-rule="evenodd" d="M47.5141 31.8411H43.0944L43.1374 9.05721C44.5979 8.02357 46.0552 8.02357 47.5093 9.05721V31.8411H47.5141Z" fill="#DE8E2B"/>
<path fill-rule="evenodd" clip-rule="evenodd" d="M53.2314 31.9009L47.5122 31.8411V9.05721C49.4138 8.02357 51.3202 8.02357 53.2314 9.05721V31.9009Z" fill="#F0BD40"/>
<path fill-rule="evenodd" clip-rule="evenodd" d="M57.6072 31.8411H53.1875L53.2305 9.05721C54.691 8.02357 56.1483 8.02357 57.6024 9.05721V31.8411H57.6072Z" fill="#F2D065"/>
<path fill-rule="evenodd" clip-rule="evenodd" d="M43.0993 29.8939L39.5994 33.7498C39.1742 33.7594 38.9807 33.5205 39.0189 33.0331C39.0189 26.6831 38.5148 24.4781 43.1399 19.2963L43.0993 29.9011V29.8939Z" fill="#5A4A4A"/>
<path fill-rule="evenodd" clip-rule="evenodd" d="M43.1421 19.289L42.0288 20.603L41.9882 31.1194L43.1015 29.8508L43.1421 19.289Z" fill="#453636"/>
<path fill-rule="evenodd" clip-rule="evenodd" d="M50.3162 13.7055C50.7348 13.7055 51.144 13.8296 51.4921 14.0622C51.8402 14.2948 52.1115 14.6253 52.2717 15.0121C52.4319 15.3989 52.4738 15.8245 52.3921 16.2351C52.3105 16.6457 52.1089 17.0228 51.8129 17.3188C51.5168 17.6148 51.1397 17.8164 50.7291 17.8981C50.3185 17.9798 49.8929 17.9379 49.5062 17.7777C49.1194 17.6175 48.7888 17.3462 48.5562 16.9981C48.3236 16.65 48.1995 16.2408 48.1995 15.8221C48.1995 15.2608 48.4225 14.7224 48.8195 14.3254C49.2164 13.9285 49.7548 13.7055 50.3162 13.7055ZM50.3162 11.6557C51.1402 11.6557 51.9457 11.9001 52.6309 12.3579C53.3161 12.8157 53.8501 13.4664 54.1654 14.2277C54.4808 14.989 54.5633 15.8267 54.4025 16.635C54.2418 17.4432 53.8449 18.1855 53.2623 18.7682C52.6796 19.3509 51.9372 19.7477 51.129 19.9085C50.3208 20.0693 49.4831 19.9867 48.7217 19.6714C47.9604 19.3561 47.3097 18.822 46.8519 18.1369C46.3941 17.4517 46.1497 16.6462 46.1497 15.8221C46.1494 15.2749 46.257 14.733 46.4662 14.2273C46.6755 13.7217 46.9824 13.2623 47.3694 12.8753C47.7563 12.4884 48.2157 12.1815 48.7214 11.9722C49.227 11.7629 49.7689 11.6554 50.3162 11.6557Z" fill="white"/>
<path fill-rule="evenodd" clip-rule="evenodd" d="M43.124 31.8712H57.618V33.3811C57.6162 33.9195 57.4013 34.4352 57.0204 34.8157C56.6394 35.1962 56.1234 35.4105 55.585 35.4117H45.1522C44.6138 35.4105 44.0978 35.1962 43.7169 34.8157C43.336 34.4352 43.1211 33.9195 43.1192 33.3811V31.8712H43.124Z" fill="#3DB4BF"/>
<path fill-rule="evenodd" clip-rule="evenodd" d="M50.3162 13.4765C50.7807 13.4765 51.2349 13.6143 51.6211 13.8724C52.0074 14.1306 52.3084 14.4975 52.486 14.9267C52.6637 15.356 52.7101 15.8283 52.6193 16.2839C52.5285 16.7395 52.3046 17.1579 51.9759 17.4863C51.6472 17.8146 51.2285 18.0381 50.7728 18.1284C50.3171 18.2188 49.8449 18.1719 49.4158 17.9938C48.9868 17.8157 48.6201 17.5143 48.3624 17.1278C48.1046 16.7413 47.9673 16.287 47.9678 15.8225C47.9684 15.2001 48.2161 14.6033 48.6564 14.1635C49.0968 13.7236 49.6937 13.4765 50.3162 13.4765ZM50.3162 13.873C50.7023 13.873 51.0798 13.9876 51.4008 14.2022C51.7218 14.4167 51.972 14.7217 52.1196 15.0785C52.2673 15.4353 52.3058 15.8278 52.2303 16.2065C52.1548 16.5852 51.9687 16.933 51.6955 17.2058C51.4223 17.4787 51.0743 17.6644 50.6955 17.7395C50.3167 17.8145 49.9242 17.7755 49.5676 17.6274C49.211 17.4793 48.9063 17.2288 48.6921 16.9075C48.4779 16.5862 48.3639 16.2086 48.3644 15.8225C48.3644 15.5663 48.4149 15.3126 48.513 15.0759C48.6111 14.8392 48.7549 14.6242 48.9362 14.4432C49.1174 14.2621 49.3326 14.1186 49.5694 14.0207C49.8062 13.9229 50.06 13.8727 50.3162 13.873Z" fill="#D1D3D5"/>
<path fill-rule="evenodd" clip-rule="evenodd" d="M50.317 13.8729C50.7031 13.8729 51.0806 13.9875 51.4016 14.202C51.7226 14.4166 51.9728 14.7216 52.1204 15.0784C52.2681 15.4352 52.3066 15.8277 52.2311 16.2064C52.1556 16.5851 51.9695 16.9329 51.6963 17.2057C51.4231 17.4786 51.0751 17.6643 50.6963 17.7393C50.3175 17.8144 49.925 17.7754 49.5684 17.6273C49.2118 17.4792 48.9071 17.2287 48.6929 16.9074C48.4787 16.5861 48.3647 16.2085 48.3652 15.8224C48.3652 15.5661 48.4157 15.3125 48.5138 15.0758C48.6119 14.8391 48.7557 14.6241 48.937 14.4431C49.1182 14.262 49.3334 14.1185 49.5702 14.0206C49.807 13.9228 50.0608 13.8726 50.317 13.8729Z" fill="#76CFE5"/>
<path fill-rule="evenodd" clip-rule="evenodd" d="M50.0056 14.7193C51.2121 14.091 52.4328 15.823 51.2312 16.8407C51.4271 15.815 51.0185 15.1079 50.0056 14.7193Z" fill="white"/>
<path fill-rule="evenodd" clip-rule="evenodd" d="M57.6139 29.9512L61.1162 33.8071C61.5382 33.8071 61.7317 33.5682 61.6967 33.0904C61.6967 26.7428 62.2008 24.5353 57.5733 19.356L57.6139 29.9608V29.9512Z" fill="#5A4A4A"/>
<path fill-rule="evenodd" clip-rule="evenodd" d="M57.5864 19.3989L58.6996 20.7129L58.7403 31.2293L57.627 29.9607L57.5864 19.3989Z" fill="#453636"/>
<path fill-rule="evenodd" clip-rule="evenodd" d="M29.043 22.8105V22.8488C29.1934 23.3647 29.4715 23.8343 29.8514 24.2143C30.2314 24.5943 30.7011 24.8723 31.217 25.0227H31.2552C31.2991 25.0377 31.3371 25.0661 31.3641 25.1038C31.391 25.1415 31.4055 25.1866 31.4055 25.233C31.4055 25.2793 31.391 25.3245 31.3641 25.3622C31.3371 25.3999 31.2991 25.4282 31.2552 25.4432H31.217C30.7011 25.5936 30.2314 25.8717 29.8514 26.2517C29.4715 26.6317 29.1934 27.1013 29.043 27.6172V27.6554C29.0293 27.7005 29.0014 27.7399 28.9636 27.768C28.9257 27.796 28.8799 27.8111 28.8328 27.8111C28.7857 27.8111 28.7398 27.796 28.702 27.768C28.6641 27.7399 28.6363 27.7005 28.6225 27.6554V27.6172C28.4721 27.1013 28.1941 26.6317 27.8141 26.2517C27.4341 25.8717 26.9644 25.5936 26.4485 25.4432H26.4103C26.3653 25.4295 26.3258 25.4016 26.2978 25.3638C26.2698 25.3259 26.2546 25.2801 26.2546 25.233C26.2546 25.1859 26.2698 25.14 26.2978 25.1022C26.3258 25.0643 26.3653 25.0365 26.4103 25.0227H26.4485C26.9644 24.8723 27.4341 24.5943 27.8141 24.2143C28.1941 23.8343 28.4721 23.3647 28.6225 22.8488V22.8105C28.6375 22.7667 28.6658 22.7286 28.7035 22.7017C28.7412 22.6747 28.7864 22.6602 28.8328 22.6602C28.8791 22.6602 28.9243 22.6747 28.962 22.7017C28.9997 22.7286 29.028 22.7667 29.043 22.8105Z" fill="white"/>
<path fill-rule="evenodd" clip-rule="evenodd" d="M65.7783 18.4984V18.5247C65.876 18.8656 66.0589 19.176 66.3096 19.4268C66.5604 19.6775 66.8708 19.8604 67.2117 19.9581H67.2356C67.2652 19.9662 67.2913 19.984 67.3095 20.0087C67.3277 20.0334 67.337 20.0636 67.3359 20.0943C67.3366 20.1249 67.3271 20.1548 67.309 20.1795C67.2908 20.2041 67.265 20.222 67.2356 20.2304H67.2117C66.871 20.3286 66.5608 20.5116 66.3101 20.7623C66.0594 21.013 65.8764 21.3232 65.7783 21.6639V21.6901C65.7695 21.7197 65.7514 21.7457 65.7266 21.7641C65.7019 21.7826 65.6718 21.7925 65.641 21.7925C65.6101 21.7925 65.58 21.7826 65.5553 21.7641C65.5305 21.7457 65.5124 21.7197 65.5036 21.6901V21.6639C65.4055 21.3232 65.2225 21.013 64.9718 20.7623C64.7211 20.5116 64.4109 20.3286 64.0702 20.2304H64.0463C64.0169 20.222 63.9911 20.2041 63.9729 20.1795C63.9548 20.1548 63.9453 20.1249 63.946 20.0943C63.9449 20.0636 63.9542 20.0334 63.9724 20.0087C63.9906 19.984 64.0167 19.9662 64.0463 19.9581H64.0702C64.4111 19.8604 64.7215 19.6775 64.9723 19.4268C65.223 19.176 65.4059 18.8656 65.5036 18.5247V18.4984C65.5124 18.4688 65.5305 18.4429 65.5553 18.4244C65.58 18.406 65.6101 18.396 65.641 18.396C65.6718 18.396 65.7019 18.406 65.7266 18.4244C65.7514 18.4429 65.7695 18.4688 65.7783 18.4984Z" fill="white"/>
<path fill-rule="evenodd" clip-rule="evenodd" d="M37.3425 12.4226V12.4417C37.4229 12.7162 37.5713 12.966 37.7738 13.1681C37.9763 13.3702 38.2264 13.518 38.5011 13.598H38.5202C38.5436 13.6057 38.5639 13.6206 38.5782 13.6405C38.5926 13.6605 38.6004 13.6845 38.6004 13.709C38.6004 13.7336 38.5926 13.7576 38.5782 13.7775C38.5639 13.7975 38.5436 13.8124 38.5202 13.8201H38.5011C38.2264 13.9001 37.9763 14.0479 37.7738 14.25C37.5713 14.452 37.4229 14.7019 37.3425 14.9764V14.9955C37.3356 15.0199 37.3209 15.0413 37.3006 15.0564C37.2802 15.0716 37.2555 15.0796 37.2302 15.0791C37.2052 15.0794 37.1808 15.0714 37.1609 15.0562C37.1409 15.0411 37.1267 15.0197 37.1203 14.9955V14.9764C37.0408 14.7017 36.8931 14.4517 36.6909 14.2495C36.4887 14.0473 36.2387 13.8996 35.964 13.8201H35.9449C35.9202 13.8138 35.8984 13.7995 35.8827 13.7794C35.8671 13.7592 35.8587 13.7345 35.8587 13.709C35.8587 13.6836 35.8671 13.6588 35.8827 13.6387C35.8984 13.6186 35.9202 13.6043 35.9449 13.598H35.964C36.2387 13.5185 36.4887 13.3708 36.6909 13.1686C36.8931 12.9664 37.0408 12.7163 37.1203 12.4417V12.4226C37.1267 12.3984 37.1409 12.377 37.1609 12.3619C37.1808 12.3467 37.2052 12.3386 37.2302 12.3389C37.2555 12.3385 37.2802 12.3465 37.3006 12.3616C37.3209 12.3768 37.3356 12.3982 37.3425 12.4226Z" fill="white"/>
<path fill-rule="evenodd" clip-rule="evenodd" d="M51.3201 22.6619L50.9832 33.121C50.8877 36.1072 49.7887 36.2458 49.6932 33.121L49.3587 22.6954C49.2775 20.1296 51.3965 20.3064 51.3201 22.6524V22.6619Z" fill="#5A4A4A"/>
<path d="M0 39.4733H5.09813V46.9365L11.4314 39.4733H17.4756L10.5116 47.3833L17.7121 57.8686H11.5891L6.96395 51.036L5.09813 53.1121V57.8686H0V39.4733Z" fill="#5A4A4A"/>
<path d="M21.8121 39.4733H36.6072V43.8093H26.8577V46.5949H35.6875V50.6156H26.8577V53.5349H36.7386V57.8686H21.8121V39.4733Z" fill="#5A4A4A"/>
<path d="M40.4962 39.4733H46.1987L50.3771 51.1173L54.5555 39.4733H60.1529L52.6897 58H47.9594L40.4962 39.4733Z" fill="#5A4A4A"/>
<path d="M64.6722 57.8686H69.7966V39.4733H64.6722V57.8686Z" fill="#5A4A4A"/>
<path d="M75.7886 39.4733H80.5451L88.1135 49.1965V39.4733H93.1591V57.8686H88.6916L80.8342 47.7774V57.8686H75.7886V39.4733Z" fill="#5A4A4A"/>
<path d="M47.3259 39.5164L50.5367 46.853L53.5229 39.4973L47.3259 39.5164Z" fill="#EFBC3F"/>
<path d="M49.1148 39.5068L50.5697 42.8299L51.9219 39.4973L49.1148 39.5068Z" fill="white"/>
<path fill-rule="evenodd" clip-rule="evenodd" d="M54.556 39.5046L50.3776 51.1175L46.1992 39.5046" fill="#EB7C22"/>
<path fill-rule="evenodd" clip-rule="evenodd" d="M53.1359 39.5046L50.324 47.319L47.5122 39.5046" fill="#F0BD40"/>
<path fill-rule="evenodd" clip-rule="evenodd" d="M51.683 39.5046L50.3237 43.2864L48.9619 39.5046" fill="white"/>
</svg>
