<svg width="92" height="92" viewBox="0 0 92 92" fill="none" xmlns="http://www.w3.org/2000/svg">
<circle cx="46" cy="46" r="46" fill="#E37D27"/>
<path d="M25.3995 44.7376V62.6301H32.9745L33.357 62.6751C40.3895 64.3151 45.0496 65.4976 47.3721 66.2301C50.4571 67.2026 51.6071 67.4401 53.6996 67.5801C55.2646 67.6876 57.0421 67.0851 57.8521 66.2601C58.2996 65.8051 58.6346 64.8701 58.7671 63.4201C58.7945 63.116 58.9032 62.825 59.0818 62.5773C59.2604 62.3297 59.5022 62.1347 59.7821 62.0126C60.4046 61.7426 60.9221 61.3026 61.3546 60.6626C61.7546 60.0776 62.0146 58.9876 62.0621 57.4101C62.0704 57.1201 62.1526 56.837 62.301 56.5876C62.4493 56.3383 62.6587 56.1309 62.9096 55.9851C64.3646 55.1426 65.0846 54.1926 65.2346 53.0776C65.3996 51.8451 64.9996 50.4576 63.9521 48.8776C63.7063 48.507 63.6148 48.0552 63.6969 47.6182C63.7791 47.1813 64.0285 46.7936 64.3921 46.5376C65.3946 45.8326 65.9446 44.8526 66.0821 43.4626C66.3021 41.2476 64.8896 39.6101 61.6921 39.2826C58.8442 39.0009 55.9689 39.2407 53.2071 39.9901C52.8938 40.0719 52.5636 40.0626 52.2554 39.9632C51.9472 39.8638 51.6738 39.6785 51.4674 39.429C51.261 39.1795 51.1301 38.8763 51.0902 38.5549C51.0503 38.2336 51.103 37.9075 51.2421 37.6151C52.4921 34.9701 53.1871 32.7876 53.3496 31.0976C53.5621 28.8551 53.0446 27.2301 51.8346 25.8901C50.9171 24.8751 49.4496 24.2951 48.8996 24.4151C48.1746 24.5701 47.7021 24.9901 47.0871 26.4601C46.7246 27.3301 46.5496 28.0701 46.2496 29.7976C45.9621 31.4376 45.8046 32.1776 45.4771 33.1476C44.4896 36.0876 42.067 39.1351 38.8145 41.2376C36.535 42.7094 34.0645 43.8618 31.472 44.6626C31.3101 44.7125 31.1415 44.7378 30.972 44.7376H25.3995ZM25.2945 66.0376C24.487 66.0601 23.762 65.8801 23.1545 65.4551C22.3795 64.9126 22.0145 64.0576 22.007 63.0726L22.0145 44.7651C21.9295 43.7901 22.217 42.8951 22.897 42.2301C23.5345 41.6051 24.367 41.3101 25.247 41.3301H30.7095C32.9192 40.626 35.0258 39.6324 36.9745 38.3751C39.5945 36.6801 41.5245 34.2501 42.262 32.0601C42.5145 31.3051 42.6495 30.6801 42.9045 29.2101C43.2495 27.2376 43.4646 26.3201 43.9596 25.1401C44.9846 22.685 46.3296 21.485 48.1846 21.0825C50.0096 20.6875 52.6671 21.74 54.3471 23.6C56.2096 25.6601 57.0321 28.2376 56.7271 31.4226C56.5971 32.7926 56.2171 34.3251 55.5921 36.0326C57.7265 35.7215 59.8911 35.6745 62.0371 35.8926C67.0546 36.4051 69.8721 39.6726 69.4621 43.8026C69.2821 45.5826 68.6371 47.0951 67.5396 48.2826C68.4621 50.0601 68.8296 51.8176 68.5996 53.5326C68.3346 55.5076 67.2346 57.1526 65.4046 58.4301C65.2621 60.1626 64.8646 61.5451 64.1596 62.5801C63.6041 63.4163 62.8793 64.1266 62.0321 64.6651C61.7621 66.3751 61.1946 67.7126 60.2671 68.6526C58.7296 70.2176 55.9821 71.1501 53.4721 70.9801C51.0896 70.8201 49.6796 70.5301 46.3546 69.4801C44.162 68.7876 39.622 67.6376 32.7795 66.0376H25.2945ZM29.547 43.9601C29.5464 43.7364 29.5899 43.5148 29.675 43.308C29.7601 43.1011 29.8853 42.9132 30.0432 42.7548C30.2011 42.5964 30.3887 42.4707 30.5953 42.385C30.8019 42.2992 31.0234 42.2551 31.247 42.2551C31.4703 42.2557 31.6912 42.3004 31.8972 42.3864C32.1032 42.4724 32.2903 42.5982 32.4477 42.7565C32.605 42.9149 32.7297 43.1026 32.8145 43.3091C32.8994 43.5156 32.9427 43.7368 32.942 43.9601V63.1551C32.9424 63.3784 32.8987 63.5995 32.8136 63.8059C32.7285 64.0122 32.6035 64.1998 32.4459 64.3579C32.2883 64.516 32.101 64.6415 31.8949 64.7273C31.6888 64.813 31.4678 64.8573 31.2445 64.8576C31.0213 64.8573 30.8003 64.813 30.5942 64.7273C30.388 64.6415 30.2008 64.516 30.0432 64.3579C29.8856 64.1998 29.7606 64.0122 29.6755 63.8059C29.5903 63.5995 29.5467 63.3784 29.547 63.1551V43.9601Z" fill="white"/>
</svg>
