<svg width="92" height="92" viewBox="0 0 92 92" fill="none" xmlns="http://www.w3.org/2000/svg">
<circle cx="46" cy="46" r="46" fill="#E37D27"/>
<path d="M59.3081 52.7915C58.8279 55.4737 57.5375 57.9444 55.6105 59.871C53.6835 61.7975 51.2126 63.0875 48.5303 63.5671C48.4284 63.5834 48.3255 63.5919 48.2224 63.5925C47.7579 63.5924 47.3104 63.4177 46.9686 63.1031C46.6268 62.7885 46.4158 62.3569 46.3774 61.894C46.3389 61.4311 46.4758 60.9706 46.761 60.6039C47.0461 60.2372 47.4587 59.991 47.9168 59.9143C51.7525 59.2684 55.0072 56.0138 55.6576 52.1712C55.7399 51.6868 56.0112 51.2549 56.4119 50.9705C56.8126 50.6862 57.3098 50.5727 57.7942 50.6549C58.2786 50.7372 58.7105 51.0085 58.9948 51.4092C59.2792 51.8099 59.3927 52.3071 59.3104 52.7915H59.3081ZM66.741 50.6295C66.741 56.0321 64.5949 61.2134 60.7747 65.0336C56.9544 68.8538 51.7731 71 46.3705 71C40.9679 71 35.7866 68.8538 31.9664 65.0336C28.1462 61.2134 26 56.0321 26 50.6295C26 44.1665 28.5463 37.5576 33.5602 30.9881C33.719 30.7801 33.9199 30.6081 34.15 30.4834C34.38 30.3587 34.6338 30.2842 34.8948 30.2647C35.1557 30.2452 35.4178 30.2813 35.6637 30.3705C35.9097 30.4596 36.134 30.5999 36.3218 30.7821L41.9052 36.2011L46.9978 22.2172C47.0996 21.9383 47.2669 21.688 47.4857 21.4873C47.7044 21.2866 47.9682 21.1414 48.2549 21.064C48.5415 20.9866 48.8425 20.9793 49.1326 21.0426C49.4226 21.1059 49.6932 21.2381 49.9215 21.4279C54.984 25.6293 66.741 36.8678 66.741 50.6295ZM63.0373 50.6295C63.0373 39.9604 54.7525 30.7404 49.5627 26.0159L44.4075 40.1525C44.3017 40.4429 44.125 40.7022 43.8933 40.9067C43.6617 41.1112 43.3825 41.2545 43.0813 41.3236C42.7801 41.3926 42.4664 41.3852 42.1688 41.3019C41.8712 41.2187 41.5991 41.0623 41.3774 40.847L35.2732 34.9257C31.5764 40.2613 29.7037 45.5368 29.7037 50.6295C29.7037 55.0498 31.4597 59.289 34.5853 62.4147C37.711 65.5403 41.9502 67.2963 46.3705 67.2963C50.7908 67.2963 55.0301 65.5403 58.1557 62.4147C61.2814 59.289 63.0373 55.0498 63.0373 50.6295Z" fill="white"/>
</svg>
