<svg width="63" height="55" viewBox="0 0 63 55" fill="none" xmlns="http://www.w3.org/2000/svg">
<path d="M2.83649 35.3465C3.24554 33.7518 4.20696 32.6921 5.85959 32.2751C5.85959 31.4442 5.85959 30.6251 5.85959 29.8046C5.85959 27.5075 5.86706 25.2088 5.84616 22.9117C5.84466 22.6965 5.7118 22.408 5.54459 22.278C2.90964 20.2304 3.38736 15.6302 6.43137 14.2327C10.8503 12.2031 15.2932 10.2258 19.7256 8.22758C22.7322 6.87201 25.7598 5.56128 28.7411 4.1534C31.3761 2.90842 33.9931 2.85611 36.6296 4.03234C43.673 7.1769 50.706 10.3424 57.742 13.5049C59.011 14.0758 59.7186 15.1056 60.0411 16.4298C60.0754 16.5717 60.1232 16.7092 60.165 16.8497C60.165 17.3728 60.165 17.8959 60.165 18.419C60.0904 18.6866 60.0202 18.9541 59.9411 19.2201C59.5604 20.5039 58.8065 21.453 57.5614 22.0209C55.7804 22.8325 54.0277 23.7038 52.2497 24.5183C51.8645 24.6947 51.7555 24.9084 51.757 25.3179C51.7735 29.1097 51.6988 32.9044 51.7839 36.6946C51.8944 41.6535 49.7163 45.3825 45.8228 48.2162C42.637 50.5342 39.0092 51.6776 35.1038 51.7822C32.4808 51.8539 29.822 51.8853 27.2288 51.5491C21.9798 50.869 17.6654 48.4194 14.6632 43.9462C13.3733 42.0242 12.803 39.8496 12.803 37.533C12.8015 33.6472 12.7971 29.7613 12.812 25.8754C12.8135 25.4674 12.7224 25.2552 12.3134 25.0982C10.6995 24.478 9.10514 23.8114 7.45699 23.1433C7.45699 26.2221 7.45699 29.2382 7.45699 32.2721C9.13947 32.8132 10.1935 33.9162 10.3233 35.7261C10.4413 37.3552 9.62765 38.4731 7.66897 39.5178C8.34525 41.3038 9.02303 43.0958 9.7008 44.8878C9.87846 45.3586 10.0666 45.8264 10.2367 46.3001C10.5413 47.1521 10.192 47.6707 9.30369 47.6751C7.49431 47.6826 5.68343 47.7005 3.87405 47.6572C3.52471 47.6482 3.18284 47.3792 2.83649 47.2298C2.83649 46.9682 2.83649 46.7067 2.83649 46.4451C3.11118 45.7561 3.39483 45.0716 3.65907 44.3796C4.2831 42.7505 4.89966 41.1185 5.53265 39.455C4.04424 38.9573 3.20672 37.9186 2.83649 36.4704C2.83649 36.0938 2.83649 35.7201 2.83649 35.3465ZM9.86054 22.3019C9.85606 22.3437 9.85009 22.3871 9.84561 22.4289C11.2594 22.9999 12.6731 23.5678 14.0854 24.1402C19.2643 26.2386 24.4341 28.3549 29.6219 30.4293C31.9464 31.359 34.2499 31.3126 36.5519 30.2037C41.2336 27.9484 45.9437 25.7514 50.6478 23.5424C52.7035 22.5769 54.7652 21.6249 56.8388 20.6967C57.6928 20.3141 58.1899 19.6715 58.4362 18.8016C58.9602 16.9603 58.2705 15.4508 56.5507 14.6826C49.8178 11.6711 43.0714 8.68641 36.3549 5.6375C33.9125 4.52853 31.5866 4.55395 29.1442 5.67338C21.8634 9.01074 14.5691 12.3212 7.22708 15.5226C5.46398 16.2908 4.88772 19.1454 6.02679 20.6086C6.33881 21.0106 6.70606 21.2168 7.23454 21.1062C7.74511 21.0001 8.26464 20.9419 8.77969 20.8597C16.3979 19.6446 24.0161 18.428 31.6344 17.2129C32.2688 17.1113 32.6316 17.3056 32.7212 17.7853C32.8197 18.3099 32.5181 18.6866 31.8732 18.8016C31.176 18.9257 30.4744 19.0243 29.7757 19.1349C24.4386 19.9809 19.1015 20.8268 13.7645 21.6727C12.4641 21.8804 11.1623 22.0927 9.86054 22.3019ZM50.1985 25.5361C49.9865 25.6228 49.8312 25.6781 49.6849 25.7469C45.7616 27.6046 41.8069 29.4026 37.9239 31.341C34.7306 32.9342 31.5911 32.9836 28.3276 31.619C23.8937 29.7643 19.427 27.9902 14.9722 26.1848C14.7916 26.1116 14.6035 26.0563 14.3691 25.977C14.3691 26.1982 14.3691 26.3462 14.3691 26.4942C14.3691 30.1558 14.3721 33.8175 14.3676 37.4777C14.3646 39.5313 14.8976 41.4368 16.0187 43.1481C18.7074 47.2507 22.674 49.361 27.3945 49.9813C29.9847 50.322 32.6465 50.2966 35.2666 50.201C39.3153 50.053 42.9564 48.675 46.0467 45.9878C48.7683 43.6204 50.2656 40.7 50.2089 37.0144C50.1537 33.4095 50.197 29.8046 50.197 26.1982C50.1985 25.998 50.1985 25.7977 50.1985 25.5361ZM8.76923 35.8935C8.76326 34.7202 7.80333 33.7742 6.62246 33.7787C5.38784 33.7817 4.41298 34.7113 4.40552 35.892C4.39805 37.0966 5.39082 38.0457 6.64784 38.0352C7.82573 38.0262 8.77521 37.0682 8.76923 35.8935ZM4.75634 46.0685C6.01634 46.0685 7.19424 46.0685 8.42139 46.0685C7.83469 44.4215 7.26589 42.8253 6.64186 41.0722C5.97604 42.8357 5.3744 44.4289 4.75634 46.0685Z" fill="white"/>
</svg>
