<svg width="35" height="35" viewBox="0 0 35 35" fill="none" xmlns="http://www.w3.org/2000/svg">
<path d="M17.5015 13.1251C16.3411 13.1251 15.2283 13.586 14.4079 14.4065C13.5874 15.227 13.1265 16.3398 13.1265 17.5001C13.1265 18.6604 13.5874 19.7732 14.4079 20.5937C15.2283 21.4141 16.3411 21.8751 17.5015 21.8751C18.6618 21.8751 19.7746 21.4141 20.5951 20.5937C21.4155 19.7732 21.8765 18.6604 21.8765 17.5001C21.8765 16.3398 21.4155 15.227 20.5951 14.4065C19.7746 13.586 18.6618 13.1251 17.5015 13.1251ZM17.5015 10.2084C19.4353 10.2084 21.29 10.9766 22.6574 12.3441C24.0249 13.7115 24.7931 15.5662 24.7931 17.5001C24.7931 19.434 24.0249 21.2886 22.6574 22.6561C21.29 24.0235 19.4353 24.7917 17.5015 24.7917C15.5676 24.7917 13.7129 24.0235 12.3455 22.6561C10.978 21.2886 10.2098 19.434 10.2098 17.5001C10.2098 15.5662 10.978 13.7115 12.3455 12.3441C13.7129 10.9766 15.5676 10.2084 17.5015 10.2084ZM26.9806 9.84383C26.9806 10.3273 26.7886 10.791 26.4467 11.1328C26.1048 11.4747 25.6412 11.6667 25.1577 11.6667C24.6742 11.6667 24.2106 11.4747 23.8687 11.1328C23.5268 10.791 23.3348 10.3273 23.3348 9.84383C23.3348 9.36036 23.5268 8.8967 23.8687 8.55483C24.2106 8.21297 24.6742 8.02091 25.1577 8.02091C25.6412 8.02091 26.1048 8.21297 26.4467 8.55483C26.7886 8.8967 26.9806 9.36036 26.9806 9.84383ZM17.5015 5.83341C13.8935 5.83341 13.3044 5.84362 11.6258 5.918C10.4825 5.97196 9.71542 6.12508 9.00375 6.40216C8.40819 6.62082 7.86977 6.9713 7.42875 7.42737C6.9723 7.86837 6.62135 8.40677 6.40208 9.00237C6.125 9.71696 5.97188 10.4826 5.91938 11.6245C5.84354 13.2345 5.83333 13.7974 5.83333 17.5001C5.83333 21.1095 5.84354 21.6972 5.91792 23.3757C5.97188 24.5176 6.125 25.2861 6.40062 25.9963C6.64854 26.6307 6.94021 27.0872 7.42438 27.5713C7.91583 28.0613 8.37229 28.3545 8.99937 28.5965C9.71979 28.8751 10.4869 29.0297 11.6244 29.0822C13.2344 29.158 13.7973 29.1667 17.5 29.1667C21.1094 29.1667 21.6971 29.1565 23.3756 29.0822C24.516 29.0282 25.2831 28.8751 25.9963 28.5995C26.5913 28.3797 27.1295 28.0294 27.5712 27.5742C28.0627 27.0842 28.3558 26.6278 28.5979 25.9992C28.875 25.2817 29.0296 24.5147 29.0821 23.3742C29.1579 21.7657 29.1667 21.2013 29.1667 17.5001C29.1667 13.8922 29.1565 13.303 29.0821 11.6245C29.0281 10.484 28.8735 9.71404 28.5979 9.00237C28.3781 8.4074 28.0278 7.86922 27.5727 7.42737C27.1319 6.97069 26.5935 6.6197 25.9977 6.40071C25.2831 6.12362 24.516 5.9705 23.3756 5.918C21.7671 5.84216 21.2056 5.83341 17.5015 5.83341ZM17.5015 2.91675C21.4637 2.91675 21.9581 2.93133 23.5142 3.00425C25.0658 3.07716 26.1246 3.32071 27.0535 3.68237C28.016 4.05279 28.8269 4.55446 29.6377 5.36383C30.3793 6.09285 30.9531 6.97469 31.3192 7.948C31.6794 8.87696 31.9244 9.93571 31.9973 11.4888C32.0658 13.0434 32.0848 13.5378 32.0848 17.5001C32.0848 21.4624 32.0702 21.9567 31.9973 23.5113C31.9244 25.0645 31.6794 26.1217 31.3192 27.0522C30.9541 28.026 30.3801 28.908 29.6377 29.6363C28.9085 30.3776 28.0267 30.9514 27.0535 31.3178C26.1246 31.678 25.0658 31.923 23.5142 31.9959C21.9581 32.0645 21.4637 32.0834 17.5015 32.0834C13.5392 32.0834 13.0448 32.0688 11.4887 31.9959C9.93708 31.923 8.87979 31.678 7.94938 31.3178C6.97568 30.9524 6.09369 30.3785 5.36521 29.6363C4.62355 28.9074 4.04973 28.0255 3.68375 27.0522C3.32208 26.1232 3.07854 25.0645 3.00563 23.5113C2.93563 21.9567 2.91813 21.4624 2.91813 17.5001C2.91813 13.5378 2.93271 13.0434 3.00563 11.4888C3.07854 9.93425 3.32208 8.87841 3.68375 7.948C4.04868 6.97409 4.62263 6.09201 5.36521 5.36383C6.0939 4.62188 6.97583 4.04802 7.94938 3.68237C8.87833 3.32071 9.93562 3.07716 11.4887 3.00425C13.0448 2.93571 13.5392 2.91675 17.5015 2.91675Z" fill="white"/>
</svg>
