<svg width="52" height="52" viewBox="0 0 52 52" fill="none" xmlns="http://www.w3.org/2000/svg">
<g clip-path="url(#clip0_117_11)">
<path d="M52 16.2752C52 14.4804 50.5449 13.0252 48.7501 13.0252H43.2023C44.638 11.609 45.557 9.75249 45.557 7.46606C45.557 4.65075 43.9401 1.5925 39.4015 1.5925C33.4296 1.5925 28.4408 7.95112 26.0968 11.5156C23.7511 7.95194 18.6096 1.59331 12.6385 1.59331C8.0999 1.59331 6.48303 4.65156 6.48303 7.46687C6.48303 9.75244 7.42715 11.6098 8.89209 13.026H3.25009C1.45528 13.026 9.15527e-05 14.4812 9.15527e-05 16.276V26.0041H3.27853V47.1575C3.27853 48.9523 4.73367 50.4075 6.52853 50.4075H45.5123C47.307 50.4075 48.7623 48.9523 48.7623 47.1575V26.0033H52.0001V16.2752H52ZM39.4015 4.84331C41.4108 4.84331 42.307 5.68755 42.307 7.46693C42.307 11.0769 38.2778 13.0244 34.4883 13.0244H28.9868C31.2959 9.59481 35.3601 4.84331 39.4015 4.84331ZM12.6385 4.84336C16.6807 4.84336 20.8983 9.59486 23.2074 13.0236H17.7044C13.9149 13.0236 9.73293 11.0257 9.73293 7.41574C9.73293 5.63718 10.6291 4.84336 12.6385 4.84336ZM48.75 22.7532H27.625V16.2752H48.75V22.7532ZM3.25004 16.2752H24.375V22.7532H3.25004V16.2752ZM6.52848 26.0033H24.375V47.1567H6.52848V26.0033ZM45.513 47.1567H27.625V26.0033H45.513V47.1567Z" fill="white"/>
</g>
<defs>
<clipPath id="clip0_117_11">
<rect width="52" height="52" fill="white"/>
</clipPath>
</defs>
</svg>
