<svg width="100" height="54" viewBox="0 0 100 54" fill="none" xmlns="http://www.w3.org/2000/svg">
<rect width="100" height="54" fill="#303030"/>
<path d="M65.1875 33.75C62.8512 33.75 60.5674 33.0572 58.6248 31.7592C56.6823 30.4613 55.1682 28.6164 54.2742 26.458C53.3801 24.2995 53.1462 21.9244 53.602 19.633C54.0578 17.3416 55.1828 15.2368 56.8348 13.5848C58.4868 11.9328 60.5916 10.8078 62.883 10.352C65.1744 9.89619 67.5495 10.1301 69.7079 11.0242C71.8664 11.9182 73.7113 13.4323 75.0092 15.3748C76.3072 17.3174 77 19.6012 77 21.9375L77.054 23.625C77.054 26.7275 76.4429 29.7996 75.2557 32.6659C74.0684 35.5322 72.3282 38.1366 70.1344 40.3304C67.9406 42.5242 65.3362 44.2644 62.4699 45.4517C59.6036 46.6389 56.5315 47.25 53.429 47.25V40.5C55.646 40.506 57.8423 40.0724 59.8907 39.2243C61.9391 38.3762 63.799 37.1304 65.363 35.559C65.9709 34.9523 66.5316 34.3002 67.0404 33.6083C66.4274 33.7046 65.808 33.7531 65.1875 33.7534V33.75ZM34.8125 33.75C32.4762 33.75 30.1924 33.0572 28.2498 31.7592C26.3073 30.4613 24.7932 28.6164 23.8992 26.458C23.0051 24.2995 22.7712 21.9244 23.227 19.633C23.6828 17.3416 24.8078 15.2368 26.4598 13.5848C28.1118 11.9328 30.2166 10.8078 32.508 10.352C34.7994 9.89619 37.1745 10.1301 39.3329 11.0242C41.4914 11.9182 43.3363 13.4323 44.6342 15.3748C45.9322 17.3174 46.625 19.6012 46.625 21.9375L46.679 23.625C46.679 29.8907 44.1899 35.8999 39.7594 40.3304C35.3288 44.7609 29.3197 47.25 23.054 47.25V40.5C25.271 40.506 27.4672 40.0724 29.5157 39.2243C31.5641 38.3762 33.424 37.1304 34.988 35.559C35.5959 34.9523 36.1566 34.3002 36.6654 33.6083C36.0524 33.7046 35.433 33.7531 34.8125 33.7534V33.75Z" fill="#E37D27"/>
</svg>
