<svg width="92" height="92" viewBox="0 0 92 92" fill="none" xmlns="http://www.w3.org/2000/svg">
<circle cx="46" cy="46" r="46" fill="#E37D27"/>
<path d="M47.9518 25.5455C56.8154 25.5455 63.8609 32.5909 63.8609 41.4545C63.8609 47.8182 60.2245 53.2727 54.7699 55.7727V66.4545H38.8609V59.6364H36.5881C34.0881 59.6364 32.0427 57.5909 32.0427 55.0909V48.2727H28.6336C27.7245 48.2727 27.0427 47.1364 27.7245 46.4545L32.0427 40.7727C32.4972 32.1364 39.3154 25.5455 47.9518 25.5455ZM47.9518 21C37.4972 21 28.8609 28.7273 27.7245 38.9545L24.0881 43.7273C22.7245 45.5455 22.7245 47.8182 23.6336 49.6364C24.5427 51.2273 25.9063 52.3636 27.4972 52.5909V55.0909C27.4972 59.4091 30.4518 62.8182 34.3154 63.9545V71H59.3154V58.5C64.9972 54.6364 68.4063 48.5 68.4063 41.4545C68.4063 30.0909 59.3154 21 47.9518 21ZM50.2245 50.5455H45.679V48.2727H50.2245V50.5455ZM53.8609 40.3182C53.179 41.2273 52.4972 42.1364 51.3609 42.8182V46H44.5427V42.8182C41.3609 41 40.2245 36.6818 42.0427 33.5C43.8609 30.3182 48.179 29.1818 51.3609 31C54.5427 32.8182 55.679 37.1364 53.8609 40.3182Z" fill="white"/>
</svg>
