<?xml version="1.0" standalone="no"?>
<!DOCTYPE svg PUBLIC "-//W3C//DTD SVG 20010904//EN"
 "http://www.w3.org/TR/2001/REC-SVG-20010904/DTD/svg10.dtd">
<svg version="1.0" xmlns="http://www.w3.org/2000/svg"
 width="1504.000000pt" height="1504.000000pt" viewBox="0 0 1504.000000 1504.000000"
 preserveAspectRatio="xMidYMid meet">
<metadata>
Created by potrace 1.14, written by Peter Selinger 2001-2017
</metadata>
<g transform="translate(0.000000,1504.000000) scale(0.100000,-0.100000)"
fill="#000000" stroke="none">
<path d="M7851 11894 c-111 -140 -205 -263 -208 -271 -6 -15 12 -16 177 -10
101 4 291 7 422 7 l239 0 -58 74 c-302 383 -359 455 -364 455 -3 1 -96 -114
-208 -255z"/>
<path d="M7220 10823 c-97 -7 -220 -52 -294 -108 -19 -14 -19 -42 -15 -1252 2
-681 3 -1048 2 -815 -2 232 -7 422 -11 422 -10 -1 -157 -177 -229 -275 -143
-194 -221 -324 -286 -477 -120 -280 -151 -524 -145 -1156 l3 -354 28 -24 c15
-13 36 -24 45 -24 14 0 322 328 517 551 78 90 77 91 73 -86 l-3 -155 348 0
347 0 0 1028 0 1028 -31 30 c-38 35 -97 121 -131 189 -77 153 -76 422 3 577
32 62 92 148 128 182 l31 30 0 283 0 284 -62 39 c-90 58 -214 90 -318 83z"/>
<path d="M9210 8273 c0 -428 3 -808 6 -844 7 -66 7 -67 88 -157 194 -218 478
-522 487 -522 24 0 67 31 73 52 10 38 7 835 -4 953 -36 388 -146 663 -403
1009 -87 116 -223 278 -238 284 -5 2 -9 -328 -9 -775z"/>
<path d="M7990 8808 c-44 -30 -79 -102 -88 -180 -4 -35 0 -299 10 -588 9 -289
22 -705 27 -925 10 -412 19 -492 58 -574 15 -31 24 -36 56 -39 36 -3 38 -1 58
43 41 93 49 173 59 590 5 220 16 591 25 825 24 680 22 725 -40 805 -50 66
-109 81 -165 43z"/>
<path d="M0 4370 l0 -1470 405 0 405 0 0 379 0 378 148 166 c81 91 150 166
154 166 3 1 172 -244 375 -544 l368 -545 488 0 c388 0 487 3 481 13 -4 6 -31
46 -59 87 -29 41 -260 379 -515 750 -255 371 -487 710 -517 752 l-53 76 272
309 c150 170 386 437 523 594 138 156 265 301 284 321 l33 38 -483 0 -484 -1
-500 -589 c-275 -325 -503 -590 -507 -590 -5 0 -8 266 -8 590 l0 590 -405 0
-405 0 0 -1470z"/>
<path d="M3490 4370 l0 -1470 1195 0 1195 0 0 345 0 345 -790 0 -790 0 0 235
0 235 705 0 705 0 0 320 0 320 -705 0 -705 0 0 225 0 225 778 2 777 3 3 343 2
342 -1185 0 -1185 0 0 -1470z"/>
<path d="M6572 5618 c49 -123 195 -486 325 -808 130 -322 307 -763 395 -980
87 -217 209 -520 271 -673 l111 -277 379 2 379 3 17 45 c10 25 98 243 195 485
234 580 386 956 601 1490 97 242 220 546 272 675 52 129 98 241 101 249 4 12
-80 13 -551 9 -306 -2 -559 -7 -562 -10 -5 -5 -75 -194 -145 -393 -16 -44 -56
-156 -90 -250 -61 -169 -94 -261 -168 -470 -22 -60 -44 -111 -48 -112 -5 -2
-36 70 -68 159 -32 90 -76 210 -97 268 -63 175 -124 345 -193 540 -37 102 -72
201 -79 220 l-13 35 -114 6 c-63 4 -316 7 -562 8 l-446 1 90 -222z"/>
<path d="M10350 4370 l0 -1470 408 2 407 3 3 1468 2 1467 -410 0 -410 0 0
-1470z"/>
<path d="M12130 4370 l0 -1470 400 0 400 0 2 807 3 808 315 -405 c174 -223
457 -586 629 -807 l314 -403 353 0 354 0 0 1470 0 1470 -400 0 -400 0 0 -770
c0 -423 -3 -770 -7 -769 -5 0 -276 345 -604 767 l-596 767 -382 3 -381 2 0
-1470z"/>
</g>
</svg>
